<mxfile host="Electron" modified="2024-01-22T15:33:21.626Z" agent="Mozilla/5.0 (Macintosh; Intel Mac OS X 10_15_7) AppleWebKit/537.36 (KHTML, like Gecko) draw.io/22.1.16 Chrome/120.0.6099.109 Electron/28.1.0 Safari/537.36" etag="1SsStBnhfKPIcQ7-V6wG" version="22.1.16" type="device">
  <diagram name="페이지-1" id="GFTtZ2BRolzbn53RG4Lo">
    <mxGraphModel dx="1176" dy="685" grid="1" gridSize="10" guides="1" tooltips="1" connect="1" arrows="1" fold="1" page="1" pageScale="1" pageWidth="827" pageHeight="1169" math="0" shadow="0">
      <root>
        <mxCell id="0" />
        <mxCell id="1" parent="0" />
        <mxCell id="fk01CfzHhJr1-c4exfhM-1" value="" style="rounded=0;whiteSpace=wrap;html=1;" vertex="1" parent="1">
          <mxGeometry x="130" y="180" width="120" height="60" as="geometry" />
        </mxCell>
        <mxCell id="fk01CfzHhJr1-c4exfhM-2" value="&lt;h1&gt;Heading&lt;/h1&gt;&lt;p&gt;계산은 총 n - 2번 일어나야함.&amp;nbsp;&amp;nbsp;&lt;/p&gt;&lt;p&gt;3&lt;/p&gt;&lt;p&gt;0 0 0&lt;/p&gt;&lt;p&gt;&lt;br&gt;&lt;/p&gt;" style="text;html=1;strokeColor=none;fillColor=none;spacing=5;spacingTop=-20;whiteSpace=wrap;overflow=hidden;rounded=0;" vertex="1" parent="1">
          <mxGeometry x="110" y="30" width="320" height="120" as="geometry" />
        </mxCell>
      </root>
    </mxGraphModel>
  </diagram>
</mxfile>
